<?xml version="1.0" encoding="UTF-8"?>
<svg width="32px" height="32px" viewBox="0 0 32 32" version="1.1" xmlns="http://www.w3.org/2000/svg" xmlns:xlink="http://www.w3.org/1999/xlink">
    <!-- Generator: Sketch 52.2 (67145) - http://www.bohemiancoding.com/sketch -->
    <title>Icons/Chevron/Expand Copy 3</title>
    <desc>Created with Sketch.</desc>
    <g id="Client" stroke="none" stroke-width="1" fill="none" fill-rule="evenodd">
        <g id="Offers03" transform="translate(-295.000000, -437.000000)">
            <g id="Group-4" transform="translate(0.000000, 414.000000)">
                <g id="Icons/Chevron/Collapse" transform="translate(311.000000, 39.000000) scale(1, -1) translate(-311.000000, -39.000000) translate(295.000000, 23.000000)">
                    <g id="chevron-down" transform="translate(16.000000, 16.000000) rotate(-270.000000) translate(-16.000000, -16.000000) ">
                        <path d="M16,32 C7.163444,32 0,24.836556 0,16 C0,7.163444 7.163444,-6.82121026e-13 16,-6.82121026e-13 C24.836556,-6.82121026e-13 32,7.163444 32,16 C32,24.836556 24.836556,32 16,32 Z M16,30 C23.7319865,30 30,23.7319865 30,16 C30,8.2680135 23.7319865,2 16,2 C8.2680135,2 2,8.2680135 2,16 C2,23.7319865 8.2680135,30 16,30 Z" id="Circle" fill="#CFCFCF"></path>
                        <polygon id="Chevron" fill="#333333" points="17 10 11 15.999 17 22 18.409 20.58 18.409 20.579 13.83 15.999 18.409 11.411 18.409 11.409"></polygon>
                    </g>
                </g>
            </g>
        </g>
    </g>
</svg>