<?xml version="1.0" encoding="UTF-8"?>
<svg width="187px" height="21px" viewBox="0 0 187 21" version="1.1" xmlns="http://www.w3.org/2000/svg" xmlns:xlink="http://www.w3.org/1999/xlink">
    <!-- Generator: Sketch 52.2 (67145) - http://www.bohemiancoding.com/sketch -->
    <title>Logos/Rocket Mortgage </title>
    <desc>Created with Sketch.</desc>
    <g id="Masthead" stroke="none" stroke-width="1" fill="none" fill-rule="evenodd">
        <g id="Components/Masthead/-Mobile-/-Header-Main" transform="translate(-94.000000, -19.000000)">
            <g id="Logos/Horizontal/Rocket-Loans" transform="translate(94.000000, 19.000000)">
                <g id="Group">
                    <path d="M51.2652921,15.9919857 C48.4390107,15.9919857 45.7891337,13.6666623 45.7891337,10.1199793 C45.7891337,6.57219388 48.4390107,4.24687051 51.2652921,4.24687051 C52.6313372,4.24687051 54.1895759,4.80243486 55.2011788,5.78404209 L57.7437976,2.17838542 C55.9683201,0.839078526 53.5318706,0.103286466 51.2652921,0.103286466 C46.0542848,0.103286466 41.1378292,3.97845798 41.1378292,10.0599034 C41.1378292,16.2008735 46.0836855,20.0457315 51.2652921,20.0457315 C53.5384041,20.0457315 55.9710424,19.308286 57.7421642,17.9689791 L55.238202,14.4189891 C54.2227878,15.4231936 52.6482153,15.9919857 51.2652921,15.9919857" id="Fill-30" fill="#231F20"></path>
                    <polygon id="Fill-32" fill="#231F20" points="77.1977711 0.427806589 71.6448442 0.427806589 64.7198832 8.96630141 64.7198832 0.427806589 60.0723899 0.427806589 60.0723899 19.7226444 64.7198832 19.7226444 64.7198832 10.2323047 71.9089063 19.7226444 77.4814337 19.7226444 69.6445056 9.49651262"></polygon>
                    <polygon id="Fill-34" fill="#231F20" points="84.3299529 11.7496347 92.1151575 11.7496347 92.1151575 7.96815952 84.3299529 7.96815952 84.3299529 4.33770087 92.9699565 4.33770087 92.9699565 0.427806589 79.6595923 0.427806589 79.6595923 19.7226444 93.3968116 19.7226444 93.3968116 15.8121989 84.3299529 15.8121989"></polygon>
                    <polygon id="Fill-36" fill="#231F20" points="95.3148281 0.427806589 95.3148281 4.39171407 101.122017 4.39171407 101.122017 19.7226444 105.791833 19.7226444 105.791833 4.39171407 111.571799 4.39171407 111.571799 0.427806589"></polygon>
                    <path d="M8.15211486,9.18384233 L4.55052534,9.18384233 L4.55052534,4.31714279 L8.15211486,4.31714279 C9.76534385,4.31714279 10.8923719,5.3174893 10.8923719,6.75049256 C10.8923719,8.20609318 9.79093337,9.18384233 8.15211486,9.18384233 M15.5251648,6.6959282 C15.5251648,3.00484249 12.6711161,0.427090088 8.58387004,0.427090088 L-5.44457978e-05,0.427090088 L-5.44457978e-05,19.7219279 L4.55052534,19.7219279 L4.55052534,10.4244925 L11.5179541,19.7219279 L16.877054,19.7219279 L11.1542562,12.320466 C13.8596678,11.6695518 15.5251648,9.29407335 15.5251648,6.6959282" id="Fill-38" fill="#231F20"></path>
                    <path d="M28.1402017,4.39138338 C31.6323552,4.39138338 34.3208887,7.16093776 34.3208887,10.818403 C34.3208887,13.2324624 33.0817023,15.1620564 31.1646658,16.3189309 L33.6359605,20.0094655 C36.7126926,18.0434952 38.7647547,14.7652247 38.7647547,10.818403 C38.7647547,4.8256936 34.0802382,0.103396697 28.1402017,0.103396697 C22.2001652,0.103396697 17.5156487,4.8256936 17.5156487,10.818403 C17.5156487,14.7652247 19.5677108,18.0434952 22.6444429,20.0094655 L25.1157376,16.3189309 C23.1987011,15.1620564 21.9595147,13.2324624 21.9595147,10.818403 C21.9595147,7.16093776 24.6475038,4.39138338 28.1402017,4.39138338" id="Fill-41" fill="#D91A31"></path>
                    <polygon id="Fill-43" fill="#221E1F" points="122.016899 17.027551 130.790294 17.027551 130.790294 19.7232506 119.196606 19.7232506 119.196606 0.427861705 122.016899 0.427861705"></polygon>
                    <path d="M164.171721,6.50611039 L166.939201,6.50611039 L166.939201,8.22461199 C167.853346,6.98175724 169.211224,6.24210709 170.960567,6.24210709 C174.276861,6.24210709 176.26141,8.38279351 176.26141,12.0049848 L176.26141,19.7228097 L173.441118,19.7228097 L173.441118,12.2419815 C173.441118,10.0489354 172.371258,8.70025884 170.281628,8.70025884 C168.401615,8.70025884 166.965879,10.1277506 166.965879,12.4541762 L166.965879,19.7228097 L164.171721,19.7228097 L164.171721,6.50611039 Z" id="Fill-45" fill="#221E1F"></path>
                    <path d="M142.829948,13.1145703 C142.829948,10.7886958 141.027792,8.88555719 138.808581,8.88555719 C136.510969,8.88555719 134.813349,10.7886958 134.813349,13.1145703 C134.813349,15.440996 136.510969,17.3441345 138.808581,17.3441345 C141.027792,17.3441345 142.829948,15.440996 142.829948,13.1145703 M132.045869,13.1145703 C132.045869,9.22892682 135.048555,6.24221733 138.808581,6.24221733 C142.569153,6.24221733 145.571294,9.22892682 145.571294,13.1145703 C145.571294,16.9473028 142.569153,19.9874744 138.808581,19.9874744 C135.048555,19.9874744 132.045869,16.9473028 132.045869,13.1145703" id="Fill-47" fill="#221E1F"></path>
                    <path d="M158.565546,13.0882251 C158.565546,10.7617994 156.816202,8.80630109 154.439643,8.80630109 C152.115352,8.80630109 150.314285,10.6829842 150.314285,13.0882251 C150.314285,15.5199214 152.115352,17.3960533 154.439643,17.3960533 C156.816202,17.3960533 158.565546,15.4670105 158.565546,13.0882251 M147.546805,13.1146805 C147.546805,8.88566742 150.627349,6.24232756 154.073768,6.24232756 C155.8242,6.24232756 157.442329,6.9819777 158.409286,8.22483245 L158.409286,6.50633085 L161.203445,6.50633085 L161.203445,19.7230302 L158.409286,19.7230302 L158.409286,17.8992579 C157.390606,19.1939213 155.798066,19.9875846 154.048723,19.9875846 C150.731885,19.9875846 147.546805,17.3172382 147.546805,13.1146805" id="Fill-49" fill="#221E1F"></path>
                    <path d="M184.318027,12.3249855 L182.926393,11.7132033 C181.750908,11.2011802 181.220061,10.6996291 181.205361,10.0850912 C181.197738,9.74282383 181.319697,9.4314212 181.557625,9.18450372 C181.854899,8.87640801 182.293188,8.7072034 182.793,8.7072034 C183.577564,8.7072034 184.167757,9.01364563 184.969199,9.83927598 L185.178815,10.0558799 L186.860646,8.31698559 L186.674986,8.11581398 C185.522368,6.87295922 184.216758,6.24298894 182.795723,6.24298894 C181.512435,6.24298894 180.369073,6.69493613 179.576343,7.51670838 C178.892503,8.22549384 178.52935,9.16796906 178.552217,10.1716225 C178.602852,12.3668733 180.112089,13.207936 181.655083,13.8814475 C181.92459,13.9878204 182.232753,14.1256092 182.573039,14.2904046 C183.369037,14.668497 184.285904,15.2146917 184.306049,16.089926 C184.31476,16.4492791 184.186813,16.7761141 183.936907,17.0357081 C183.598254,17.3856916 183.077207,17.5785959 182.468503,17.5785959 C181.538025,17.5785959 180.787217,17.1922362 179.958008,16.285586 L179.754925,16.0629194 L177.96638,17.8007114 L178.165652,18.0079457 C179.445128,19.3400876 180.81444,19.9871437 182.353078,19.9871437 C183.804059,19.9871437 185.129814,19.4762229 185.990058,18.5833517 C186.683697,17.8651966 187.038139,16.9629557 187.015272,15.9752857 C186.979338,14.4452792 185.946501,13.0469987 184.318027,12.3249855" id="Fill-51" fill="#221E1F"></path>
                </g>
            </g>
        </g>
    </g>
</svg>