<?xml version="1.0" encoding="utf-8"?>
<!-- Generator: Adobe Illustrator 22.1.0, SVG Export Plug-In . SVG Version: 6.00 Build 0)  -->
<svg version="1.1" xmlns="http://www.w3.org/2000/svg" xmlns:xlink="http://www.w3.org/1999/xlink" x="0px" y="0px" width="142px"
	 height="141.75px" viewBox="0 0 142 141.75" style="enable-background:new 0 0 142 141.75;" xml:space="preserve">
<style type="text/css">
	.st0{fill:#409DCB;}
	.st1{fill:#F7F7F7;}
	.st2{fill:#CCCCCC;}
	.st3{fill:#80BEDC;}
	.st4{fill:#FFFFFF;}
	.st5{fill:#999999;}
	.st6{fill:#BFDEEE;}
	.st7{fill:#007DBA;}
	.st8{fill:#E6E6E6;}
	.st9{clip-path:url(#SVGID_2_);fill:#A61E24;}
	.st10{clip-path:url(#SVGID_2_);fill:#00A382;}
	.st11{clip-path:url(#SVGID_2_);}
	.st12{fill:none;}
	.st13{fill:#660814;}
	.st14{fill:#00B398;}
	.st15{fill:#76232F;}
	.st16{fill:#D64C62;}
	.st17{fill:#F1C3CB;}
	.st18{clip-path:url(#SVGID_2_);fill:#FFFFFF;}
	.st19{clip-path:url(#SVGID_2_);fill:#EBEBEB;}
	.st20{fill:#F6DDC2;}
	.st21{fill:#F6D180;}
	.st22{fill:#EDA302;}
	.st23{fill:#666666;}
	.st24{fill:#CB9662;}
	.st25{fill:#EFC692;}
	.st26{fill:#8C8C8C;}
	.st27{fill:#333333;}
	.st28{fill:#C8102E;}
	.st29{fill:#ECC082;}
	.st30{fill:#814A2B;}
	.st31{fill:#94613C;}
	.st32{fill:#FDFDFD;}
	.st33{fill:#262626;}
	.st34{fill:#D1B3A3;}
	.st35{fill:#EED0B7;}
	.st36{fill:#D1937F;}
	.st37{fill:#13A48E;}
	.st38{fill:#80D9CB;}
	.st39{fill:#89D1C6;}
	.st40{fill:#E38796;}
	.st41{fill:#8C0B21;}
	.st42{fill:#4EBBAA;}
	.st43{fill:#FCFCFC;}
	.st44{fill:#F6E2AB;}
	.st45{fill:#FCE9BF;}
	.st46{fill:#231F20;}
	.st47{fill:#FBFBFB;}
	.st48{fill:#B06949;}
	.st49{fill:#292929;}
	.st50{fill:none;stroke:#80BEDC;stroke-width:0;stroke-linecap:round;stroke-linejoin:round;}
	.st51{fill:#E5BC91;}
	.st52{fill:#E9CCA8;}
	.st53{fill:#D2D1D1;}
	.st54{fill:#B4481D;}
	.st55{fill:#C78C79;}
	.st56{fill:#DBDBDB;}
	.st57{fill:#00A382;}
	.st58{fill:#B37B02;}
	.st59{fill:#2A113F;}
</style>
<g id="BG_x5F_CIRCLES">
	<g>
		<g>
			<path class="st1" d="M71.15,0.86C32.62,0.86,1.38,32.1,1.38,70.63c0,38.53,31.24,69.77,69.77,69.77
				c38.53,0,69.77-31.24,69.77-69.77C140.92,32.1,109.69,0.86,71.15,0.86z"/>
		</g>
	</g>
</g>
<g id="PRIMARY">
	<g>
		<g>
			<path class="st12" d="M88.37,87.88c0-0.03,0-0.06-0.01-0.09c-0.12-0.16-0.21-0.35-0.3-0.55c-0.03-0.07-0.05-0.15-0.07-0.22
				c-0.05-0.15-0.1-0.3-0.13-0.46c-0.02-0.1-0.04-0.2-0.05-0.3c-0.03-0.16-0.05-0.32-0.07-0.49c-0.01-0.11-0.02-0.23-0.03-0.35
				c-0.01-0.08-0.02-0.16-0.02-0.25c-0.01-0.16-0.01-0.32-0.01-0.48c-0.01-0.92,0.07-1.93,0.17-2.92c0.03-0.33,0.07-0.65,0.11-0.97
				c0.08-0.64,0.16-1.25,0.23-1.8c0.02-0.14,0.04-0.27,0.05-0.4c0.07-0.52,0.12-0.98,0.14-1.33c0.01-0.27,0.01-0.48-0.01-0.62
				c-0.02-0.1-0.05-0.2-0.09-0.31c-0.2-0.56-0.67-1.3-1.25-2.05c-0.23-0.3-0.48-0.6-0.74-0.89c-1.04-1.16-2.2-2.15-2.88-2.25
				c-0.02,0-0.05,0-0.07,0c-0.03,0-0.05,0-0.09,0c-0.03,0-0.08,0.02-0.11,0.03c-0.04,0.01-0.07,0.01-0.11,0.03
				c-0.04,0.01-0.09,0.03-0.14,0.05c-0.05,0.02-0.09,0.03-0.15,0.05c-0.07,0.03-0.14,0.06-0.22,0.09c-0.04,0.02-0.08,0.03-0.12,0.05
				c-0.09,0.04-0.19,0.08-0.28,0.13c-0.04,0.02-0.07,0.03-0.11,0.05c-0.11,0.05-0.23,0.11-0.34,0.17c-0.03,0.02-0.06,0.03-0.1,0.05
				c-0.25,0.12-0.51,0.26-0.79,0.42c-0.09,0.05-0.19,0.11-0.28,0.16c-0.19,0.11-0.39,0.22-0.59,0.34c-0.12,0.07-0.25,0.15-0.37,0.23
				c-0.19,0.11-0.38,0.22-0.57,0.35c-0.14,0.09-0.29,0.18-0.43,0.27c-0.19,0.12-0.37,0.24-0.57,0.36c-0.15,0.1-0.3,0.2-0.45,0.31
				c-0.19,0.13-0.38,0.26-0.57,0.39c-0.15,0.11-0.31,0.22-0.46,0.33c-0.19,0.14-0.38,0.27-0.57,0.41c-0.16,0.12-0.31,0.24-0.47,0.36
				c-0.19,0.14-0.37,0.29-0.56,0.43c-0.16,0.12-0.31,0.25-0.47,0.38c-0.18,0.15-0.36,0.29-0.53,0.44c-0.15,0.13-0.3,0.26-0.45,0.39
				c-0.17,0.15-0.34,0.3-0.51,0.46c-0.14,0.13-0.28,0.27-0.42,0.4c-0.16,0.15-0.32,0.31-0.47,0.46c-0.13,0.14-0.26,0.27-0.39,0.41
				c-0.14,0.15-0.28,0.31-0.42,0.46c-0.12,0.14-0.23,0.28-0.34,0.41c-0.12,0.15-0.25,0.31-0.36,0.46c-0.1,0.14-0.19,0.28-0.29,0.41
				c-0.1,0.15-0.2,0.3-0.29,0.45c-0.08,0.14-0.15,0.27-0.22,0.41c-0.08,0.15-0.15,0.3-0.21,0.44c-0.06,0.13-0.1,0.26-0.15,0.4
				c-0.05,0.14-0.09,0.29-0.12,0.43c-0.03,0.13-0.05,0.26-0.07,0.38c-0.02,0.21-0.05,0.41-0.03,0.61c0,0.02,0,0.04,0,0.06
				c0.48,5.09,8.77,13.82,19.23,6.86c0.52-0.34,0.98-0.69,1.42-1.03C88.37,89.73,88.37,87.88,88.37,87.88z"/>
			<path class="st20" d="M102.64,85.01c-0.03-0.2-0.06-0.39-0.09-0.59c-0.05-0.28-0.1-0.55-0.15-0.83
				c-0.14-0.72-0.31-1.46-0.49-2.22c-0.04-0.18-0.08-0.36-0.13-0.55c-0.06-0.25-0.12-0.51-0.17-0.77c0.15-0.52-0.54-3.1-0.79-5.71
				c-0.27-2.83-0.2-3.7-1.17-2.9c-0.23,0.19-0.4,0.44-0.53,0.76c-0.03-0.01-0.05-0.01-0.08-0.02c-0.03-0.01-0.06-0.01-0.1-0.02
				c-0.08-0.01-0.15-0.02-0.23-0.02c-0.04,0-0.07,0-0.11,0.01c-0.05,0-0.1,0.01-0.15,0.01c-0.04,0.01-0.09,0.01-0.13,0.02
				c-0.04,0.01-0.08,0.02-0.12,0.03c-0.11,0.03-0.23,0.07-0.34,0.12c-0.01,0-0.01,0.01-0.02,0.01c-0.06,0.03-0.11,0.06-0.17,0.09
				c-0.03,0.02-0.06,0.03-0.08,0.05c-0.06,0.04-0.12,0.07-0.18,0.11c-0.02,0.01-0.03,0.02-0.05,0.03c-0.21,0.14-0.41,0.32-0.61,0.52
				c-0.01,0.01-0.02,0.02-0.03,0.03c-0.22,0.23-0.43,0.5-0.63,0.79c0.03-0.04,0.06-0.09,0.09-0.13c-0.05,0.07-0.1,0.13-0.14,0.2l0,0
				c-0.04,0.05-0.07,0.11-0.1,0.16c-0.01,0.01-0.01,0.02-0.02,0.03c0,0,0,0.01-0.01,0.01c-0.03,0.05-0.07,0.1-0.1,0.16
				c-0.01,0.02-0.02,0.03-0.03,0.05c-0.02,0.03-0.04,0.07-0.06,0.11c-0.01,0.02-0.03,0.05-0.04,0.07c-0.05,0.08-0.09,0.17-0.14,0.25
				c0,0,0,0,0,0.01c-0.06,0.11-0.11,0.23-0.17,0.36c0,0.01-0.01,0.01-0.01,0.02c0,0.01-0.01,0.02-0.01,0.03
				c-0.03,0.06-0.06,0.13-0.08,0.19c-0.02,0.05-0.04,0.1-0.06,0.15c0,0,0,0,0,0c-0.03,0.08-0.07,0.15-0.1,0.23
				c0-0.07,0-0.14,0.01-0.2c0-0.18-0.01-0.39-0.03-0.6c-0.01-0.04-0.01-0.09-0.02-0.13c-0.03-0.21-0.07-0.43-0.12-0.66
				c-0.01-0.04-0.02-0.09-0.03-0.13c-0.05-0.22-0.11-0.45-0.19-0.68c-0.01-0.03-0.02-0.07-0.03-0.1c-0.08-0.26-0.17-0.52-0.27-0.8
				c-0.02-0.06-0.04-0.12-0.07-0.18c-0.1-0.28-0.22-0.56-0.34-0.85c-0.01-0.03-0.02-0.06-0.04-0.08c-0.12-0.28-0.24-0.55-0.37-0.84
				c-0.03-0.06-0.05-0.11-0.08-0.17c-0.14-0.3-0.28-0.6-0.43-0.9c-0.03-0.06-0.06-0.12-0.09-0.17c-0.15-0.3-0.31-0.6-0.47-0.91
				c-0.01-0.01-0.01-0.02-0.02-0.04c-0.17-0.32-0.34-0.63-0.52-0.94c-0.03-0.06-0.06-0.11-0.09-0.17c-0.17-0.31-0.35-0.62-0.53-0.92
				c-0.02-0.03-0.04-0.06-0.05-0.09c-0.18-0.3-0.35-0.59-0.53-0.88c-0.02-0.03-0.03-0.06-0.05-0.09c-0.18-0.3-0.37-0.59-0.55-0.87
				c-0.03-0.04-0.05-0.08-0.08-0.12c-0.37-0.57-0.74-1.11-1.1-1.61c-0.02-0.03-0.04-0.06-0.06-0.08c-0.18-0.24-0.35-0.47-0.51-0.69
				c-0.01-0.02-0.03-0.04-0.04-0.06c-0.14-0.18-0.27-0.34-0.4-0.5c0,0,0,0,0,0c0,0,0,0,0-0.01c-0.03-0.03-0.06-0.07-0.09-0.11
				c0,0,0,0.01,0.01,0.01c-0.15-0.18-0.29-0.34-0.43-0.48c-0.02-0.03-0.05-0.05-0.07-0.08c-0.14-0.15-0.27-0.28-0.39-0.38
				c0,0,0,0,0,0c-0.06-0.05-0.11-0.1-0.17-0.14c-0.03-0.02-0.05-0.04-0.08-0.06c-0.04-0.03-0.07-0.05-0.11-0.07
				c-0.02-0.01-0.04-0.02-0.06-0.03c-0.05-0.03-0.1-0.05-0.15-0.06c-1.24-0.29-11.49,2.75-18.81,4.77c0.68-0.75,1.33-1.52,1.97-2.3
				c0.19-0.23,0.37-0.46,0.56-0.69c0.23-0.29,0.47-0.57,0.69-0.86c0.34-0.44,0.67-0.88,1-1.32c5.22-7.08,9.08-14.82,13.16-22.04
				c0.16-0.29,0.32-0.58,0.47-0.87c0.07-0.13,0.13-0.25,0.19-0.38c0.07-0.15,0.15-0.29,0.22-0.44c0.08-0.18,0.17-0.35,0.25-0.53
				c0.03-0.06,0.05-0.11,0.08-0.17c0.77-1.71,1.32-3.38,1.68-4.95c0-0.02,0.01-0.04,0.01-0.06c0.02-0.11,0.05-0.21,0.07-0.32
				c1.02-4.66,0.53-8.57-0.42-10.41c0.13-1.5-0.04-2.76-0.81-2.99c-1.54-0.44-2.28,1.15-3.86,5.81c0,0-0.5,1.4-0.55,2.38
				c-3.17,9.41-12.04,20.73-19.91,29.4c0.9-6.93,1.76-14.97,2.26-21.9c0,0,0,0,0,0c0.3-3.66,0.05-6.62-0.5-8.97
				c-0.01-0.04-0.02-0.08-0.03-0.12c-0.02-0.08-0.04-0.16-0.06-0.24c-0.8-3.35-2.13-5.31-3.2-6.16c-0.13-0.12-0.26-0.23-0.39-0.33
				c-0.45-0.85-1.04-1.41-1.83-1.37c0,0-0.73,0.02-0.78,2.07c-0.03,1.47-0.25,4.76,0.22,6.5c0.08,8.5-2.94,20.5-5.99,30.47
				c-0.02-0.35-0.05-0.7-0.08-1.05c-0.12-1.25-0.29-2.52-0.5-3.76c-0.21-1.24-0.48-2.44-0.77-3.58c-0.26-1-0.53-1.94-0.83-2.79
				c-0.12-0.33-0.24-0.64-0.36-0.94c-0.04-0.09-0.07-0.17-0.11-0.26c-0.09-0.22-0.18-0.42-0.28-0.62c-0.04-0.08-0.07-0.16-0.11-0.24
				c-0.13-0.26-0.26-0.51-0.39-0.73c0,0,0,0,0,0c-0.11-0.18-0.22-0.36-0.34-0.54c-0.06-0.1-0.13-0.2-0.2-0.29
				c-0.04-0.06-0.09-0.12-0.13-0.18c-0.27-0.38-0.56-0.74-0.85-1.07c-0.07-0.07-0.13-0.15-0.2-0.22c-0.03-0.04-0.07-0.07-0.1-0.1
				c-1.17-1.26-2.45-2.16-3.31-2.17c-0.14-0.02-0.27-0.03-0.39-0.03c-0.49-0.47-0.86-0.46-1.26-0.23c-0.71,0.41,0.28,2.2,0.82,4.28
				c0.45,1.73,0.71,2.56,0.92,2.89c0.81,3.01,1.61,6.82,1.46,10.91c-0.22,6.05,0.79,13.42,1.41,17.29c-0.22,0.6-0.39,1.06-0.49,1.35
				c-0.91,2.57-1.17,4.72-1.25,5.71l0,0c0,0-3.55,33.52-8.85,39.06c-1.06,1.11-4.48,3.94-9.25,7.74
				c7.4,6.12,16.08,10.72,25.58,13.38c0.19-0.18,0.38-0.37,0.56-0.55c0.58-0.57,1.15-1.12,1.71-1.66c0.28-0.27,0.55-0.53,0.82-0.79
				c0.81-0.78,1.59-1.52,2.32-2.22c0.49-0.46,0.96-0.9,1.41-1.32c0.22-0.21,0.44-0.41,0.66-0.61c0.64-0.59,1.23-1.12,1.77-1.6
				c0.36-0.31,0.69-0.6,0.99-0.85c0.76-0.64,1.34-1.08,1.71-1.3c1.71-1,4.07-2.34,6.7-3.94c0.58-0.35,1.18-0.72,1.79-1.1
				c0.61-0.38,1.22-0.77,1.84-1.16c0.62-0.4,1.24-0.81,1.87-1.22c0.62-0.42,1.25-0.84,1.87-1.28c0.62-0.43,1.24-0.88,1.85-1.32
				c0.61-0.45,1.2-0.9,1.79-1.36c0.15-0.11,0.29-0.23,0.44-0.34c0.54-0.43,1.06-0.86,1.58-1.29c0.05-0.04,0.1-0.08,0.15-0.12
				c0.42-0.35,0.82-0.71,1.21-1.07c1.05-0.95,2.02-1.92,2.87-2.89c0.64-0.73,1.21-1.46,1.71-2.19c0.55-0.81,1.08-1.58,1.59-2.31
				c0.26-0.37,0.51-0.73,0.76-1.08c0.5-0.71,0.99-1.39,1.47-2.04c0.24-0.33,0.47-0.65,0.71-0.97c0.47-0.64,0.93-1.25,1.38-1.86
				c0.68-0.91,1.34-1.79,2-2.67c0.66-0.88,1.31-1.75,1.96-2.64c0.22-0.3,0.44-0.59,0.66-0.9c0.22-0.3,0.44-0.6,0.66-0.91
				c0.11-0.16,0.22-0.32,0.32-0.48s0.2-0.32,0.28-0.48c0.09-0.16,0.17-0.32,0.25-0.48c0.23-0.48,0.4-0.95,0.53-1.43
				c0.04-0.16,0.08-0.32,0.12-0.48c0.07-0.32,0.12-0.64,0.15-0.96c0.05-0.48,0.06-0.96,0.04-1.44
				C102.76,86.01,102.71,85.51,102.64,85.01z M88.38,90.9c-10.46,6.95-18.76-1.78-19.23-6.86c0-0.02,0-0.04,0-0.06
				c-0.01-0.2,0.01-0.4,0.03-0.61c0.02-0.13,0.04-0.25,0.07-0.38c0.03-0.14,0.07-0.29,0.12-0.43c0.04-0.13,0.09-0.26,0.15-0.4
				c0.06-0.15,0.13-0.3,0.21-0.44c0.07-0.13,0.14-0.27,0.22-0.41c0.09-0.15,0.19-0.3,0.29-0.45c0.09-0.14,0.18-0.27,0.29-0.41
				c0.11-0.15,0.23-0.31,0.36-0.46c0.11-0.14,0.22-0.28,0.34-0.41c0.13-0.15,0.27-0.31,0.42-0.46c0.13-0.14,0.25-0.27,0.39-0.41
				c0.15-0.15,0.31-0.31,0.47-0.46c0.14-0.13,0.27-0.27,0.42-0.4c0.17-0.15,0.34-0.3,0.51-0.46c0.15-0.13,0.3-0.26,0.45-0.39
				c0.18-0.15,0.35-0.29,0.53-0.44c0.16-0.13,0.31-0.25,0.47-0.38c0.18-0.15,0.37-0.29,0.56-0.43c0.16-0.12,0.31-0.24,0.47-0.36
				c0.19-0.14,0.38-0.28,0.57-0.41c0.16-0.11,0.31-0.22,0.46-0.33c0.19-0.13,0.38-0.26,0.57-0.39c0.15-0.1,0.3-0.21,0.45-0.31
				c0.19-0.13,0.38-0.24,0.57-0.36c0.14-0.09,0.29-0.19,0.43-0.27c0.2-0.12,0.38-0.23,0.57-0.35c0.12-0.07,0.25-0.16,0.37-0.23
				c0.21-0.12,0.4-0.23,0.59-0.34c0.09-0.05,0.19-0.11,0.28-0.16c0.28-0.15,0.54-0.29,0.79-0.42c0.03-0.02,0.06-0.03,0.1-0.05
				c0.12-0.06,0.23-0.12,0.34-0.17c0.04-0.02,0.07-0.03,0.11-0.05c0.1-0.04,0.19-0.09,0.28-0.13c0.04-0.02,0.08-0.03,0.12-0.05
				c0.07-0.03,0.15-0.06,0.22-0.09c0.05-0.02,0.1-0.03,0.15-0.05c0.05-0.02,0.1-0.03,0.14-0.05c0.04-0.01,0.07-0.02,0.11-0.03
				c0.04-0.01,0.08-0.02,0.11-0.03c0.03-0.01,0.06,0,0.09,0c0.02,0,0.05-0.01,0.07,0c0.67,0.1,1.84,1.09,2.88,2.25
				c0.26,0.29,0.51,0.59,0.74,0.89c0.58,0.75,1.05,1.49,1.25,2.05c0.04,0.11,0.07,0.22,0.09,0.31c0.03,0.14,0.03,0.36,0.01,0.62
				c-0.02,0.36-0.07,0.81-0.14,1.33c-0.02,0.13-0.03,0.26-0.05,0.4c-0.07,0.55-0.16,1.16-0.23,1.8c-0.04,0.32-0.08,0.64-0.11,0.97
				c-0.1,0.98-0.18,1.99-0.17,2.92c0,0.16,0.01,0.32,0.01,0.48c0,0.09,0.01,0.16,0.02,0.25c0.01,0.12,0.02,0.23,0.03,0.35
				c0.02,0.17,0.04,0.33,0.07,0.49c0.02,0.1,0.03,0.21,0.05,0.3c0.04,0.16,0.08,0.31,0.13,0.46c0.02,0.07,0.04,0.15,0.07,0.22
				c0.08,0.21,0.18,0.39,0.3,0.55c0,0.03,0,0.06,0.01,0.09c0,0-0.01,1.85,1.42,1.99C89.37,90.21,88.9,90.56,88.38,90.9z"/>
		</g>
		<g>
			<path class="st28" d="M59.05,24.67c0,0,2.58-0.56,2.65-2.29c0.05-1.18-0.22-4.23-1.16-6.03c-0.45-0.85-1.04-1.41-1.83-1.37
				c0,0-0.73,0.02-0.78,2.07c-0.03,1.47-0.25,4.76,0.22,6.5C58.32,24.23,58.61,24.67,59.05,24.67z"/>
			<path class="st28" d="M44.01,42.48c0,0,2.37-1.54,0.64-4.85c-0.6-1.15-1.06-1.84-1.46-2.22c-0.49-0.47-0.86-0.46-1.26-0.23
				c-0.71,0.41,0.28,2.2,0.82,4.28c0.45,1.73,0.71,2.56,0.92,2.89C43.8,42.56,43.9,42.57,44.01,42.48z"/>
			<path class="st20" d="M102.55,84.42c-0.05-0.28-0.1-0.55-0.15-0.83c-0.14-0.72-0.31-1.46-0.49-2.22
				c-0.04-0.18-0.08-0.36-0.13-0.55l-2.74-8.64c-0.03-0.01-0.06-0.01-0.1-0.02c-0.08-0.01-0.15-0.02-0.23-0.02
				c-0.04,0-0.07,0-0.11,0.01c-0.05,0-0.1,0.01-0.15,0.01c-0.04,0.01-0.09,0.01-0.13,0.02c-0.04,0.01-0.08,0.02-0.12,0.03
				c-0.11,0.03-0.23,0.07-0.34,0.12c-0.01,0-0.01,0.01-0.02,0.01c-0.06,0.03-0.11,0.06-0.17,0.09c-0.03,0.02-0.06,0.03-0.08,0.05
				c-0.06,0.04-0.12,0.07-0.18,0.11c-0.02,0.01-0.03,0.02-0.05,0.03c-0.21,0.14-0.41,0.32-0.61,0.52c-0.01,0.01-0.02,0.02-0.03,0.03
				c-0.22,0.23-0.43,0.5-0.63,0.79c0.03-0.04,0.06-0.09,0.09-0.13c-0.05,0.07-0.1,0.13-0.14,0.2l0,0c-0.04,0.05-0.07,0.11-0.1,0.16
				c-0.01,0.01-0.01,0.02-0.02,0.03c0,0,0,0.01-0.01,0.01c-0.03,0.05-0.07,0.1-0.1,0.16c-0.01,0.02-0.02,0.03-0.03,0.05
				c-0.02,0.03-0.04,0.07-0.06,0.11c-0.01,0.02-0.03,0.05-0.04,0.07c-0.05,0.08-0.09,0.17-0.14,0.25c0,0,0,0,0,0.01
				c-0.06,0.11-0.11,0.23-0.17,0.36c0,0.01-0.01,0.01-0.01,0.02c0,0.01-0.01,0.02-0.01,0.03c-0.03,0.06-0.06,0.13-0.08,0.19
				c-0.02,0.05-0.04,0.1-0.06,0.15c0,0,0,0,0,0c-0.03,0.08-0.07,0.15-0.1,0.23c0-0.07,0-0.14,0.01-0.2c0-0.18-0.01-0.39-0.03-0.6
				c-0.01-0.04-0.01-0.09-0.02-0.13c-0.03-0.21-0.07-0.43-0.12-0.66c-0.01-0.04-0.02-0.09-0.03-0.13c-0.05-0.22-0.11-0.45-0.19-0.68
				c-0.01-0.03-0.02-0.07-0.03-0.1c-0.08-0.26-0.17-0.52-0.27-0.8c-0.02-0.06-0.04-0.12-0.07-0.18c-0.1-0.28-0.22-0.56-0.34-0.85
				c-0.01-0.03-0.02-0.06-0.04-0.08c-0.12-0.28-0.24-0.55-0.37-0.84c-0.03-0.06-0.05-0.11-0.08-0.17c-0.14-0.3-0.28-0.6-0.43-0.9
				c-0.03-0.06-0.06-0.12-0.09-0.17c-0.15-0.3-0.31-0.6-0.47-0.91c-0.01-0.01-0.01-0.02-0.02-0.04c-0.17-0.32-0.34-0.63-0.52-0.94
				c-0.03-0.06-0.06-0.11-0.09-0.17c-0.17-0.31-0.35-0.62-0.53-0.92c-0.02-0.03-0.04-0.06-0.05-0.09c-0.18-0.3-0.35-0.59-0.53-0.88
				c-0.02-0.03-0.03-0.06-0.05-0.09c-0.18-0.3-0.37-0.59-0.55-0.87c-0.03-0.04-0.05-0.08-0.08-0.12c-0.37-0.57-0.74-1.11-1.1-1.61
				c-0.02-0.03-0.04-0.06-0.06-0.08c-0.18-0.24-0.35-0.47-0.51-0.69c-0.01-0.02-0.03-0.04-0.04-0.06c-0.14-0.18-0.27-0.34-0.4-0.5
				c0,0,0,0,0,0c0,0,0,0,0-0.01c-0.03-0.03-0.06-0.07-0.09-0.11c0,0,0,0.01,0.01,0.01c-0.15-0.18-0.29-0.34-0.43-0.48
				c-0.02-0.03-0.05-0.05-0.07-0.08c-0.14-0.15-0.27-0.28-0.39-0.38c0,0,0,0,0,0c-0.06-0.05-0.11-0.1-0.17-0.14
				c-0.03-0.02-0.05-0.04-0.08-0.06c-0.04-0.03-0.07-0.05-0.11-0.07c-0.02-0.01-0.04-0.02-0.06-0.03c-0.05-0.03-0.1-0.05-0.15-0.06
				c-1.24-0.29-11.49,2.75-18.81,4.77c0.68-0.75,1.33-1.52,1.97-2.3c0.19-0.23,0.37-0.46,0.56-0.69c0.23-0.29,0.47-0.57,0.69-0.86
				c0.34-0.44,0.67-0.88,1-1.32c5.22-7.08,9.08-14.82,13.16-22.04c0.16-0.29,0.32-0.58,0.47-0.87c0.07-0.13,0.13-0.25,0.19-0.38
				c0.07-0.15,0.15-0.29,0.22-0.44c0.08-0.18,0.17-0.35,0.25-0.53c0.03-0.06,0.05-0.11,0.08-0.17c0.77-1.71,1.32-3.38,1.68-4.95
				c0-0.02,0.01-0.04,0.01-0.06c0.02-0.11,0.05-0.21,0.07-0.32c1.02-4.66,0.53-8.57-0.42-10.41l-0.16,1.21
				c-0.19,1.14-0.5,2.28-0.8,3.13c-0.82,2.3-3.91,1.8-3.91,1.8c-0.3-0.07-0.38-0.45-0.36-0.93c-3.17,9.41-12.04,20.73-19.91,29.4
				c0.9-6.93,1.76-14.97,2.26-21.9c0,0,0,0,0,0c0.3-3.66,0.05-6.62-0.5-8.97c-0.01-0.04-0.02-0.08-0.03-0.12
				c-0.02-0.08-0.04-0.16-0.06-0.24c-0.8-3.35-2.13-5.31-3.2-6.16c-0.13-0.12-0.26-0.23-0.39-0.33c0.95,1.8,1.21,4.85,1.16,6.03
				c-0.07,1.73-2.65,2.29-2.65,2.29c-0.44,0-0.72-0.44-0.9-1.12c0.08,8.5-2.94,20.5-5.99,30.47c-0.02-0.35-0.05-0.7-0.08-1.05
				c-0.12-1.25-0.29-2.52-0.5-3.76c-0.21-1.24-0.48-2.44-0.77-3.58c-0.26-1-0.53-1.94-0.83-2.79c-0.12-0.33-0.24-0.64-0.36-0.94
				c-0.04-0.09-0.07-0.17-0.11-0.26c-0.09-0.22-0.18-0.42-0.28-0.62c-0.04-0.08-0.07-0.16-0.11-0.24c-0.13-0.26-0.26-0.51-0.39-0.73
				c0,0,0,0,0,0c-0.11-0.18-0.22-0.36-0.34-0.54c-0.06-0.1-0.13-0.2-0.2-0.29c-0.04-0.06-0.09-0.12-0.13-0.18
				c-0.27-0.38-0.56-0.74-0.85-1.07c-0.07-0.07-0.13-0.15-0.2-0.22c-0.03-0.04-0.07-0.07-0.1-0.1c-1.17-1.26-2.45-2.16-3.31-2.17
				c-0.14-0.02-0.27-0.03-0.39-0.03c0.39,0.38,0.86,1.07,1.46,2.22c1.73,3.3-0.64,4.85-0.64,4.85c-0.11,0.09-0.21,0.07-0.33-0.13
				c0.81,3.01,1.61,6.82,1.46,10.91c-0.22,6.05,0.79,13.42,1.41,17.29c-0.22,0.6-0.39,1.06-0.49,1.35
				c-0.91,2.57-1.17,4.72-1.25,5.71l0,0c0,0-3.55,33.52-8.85,39.06c-1.06,1.11-4.48,3.94-9.25,7.74
				c7.4,6.12,16.08,10.72,25.58,13.38c0.19-0.18,0.38-0.37,0.56-0.55c0.58-0.57,1.15-1.12,1.71-1.66c0.28-0.27,0.55-0.53,0.82-0.79
				c0.81-0.78,1.59-1.52,2.32-2.22c0.49-0.46,0.96-0.9,1.41-1.32c0.22-0.21,0.44-0.41,0.66-0.61c0.64-0.59,1.23-1.12,1.77-1.6
				c0.36-0.31,0.69-0.6,0.99-0.85c0.76-0.64,1.34-1.08,1.71-1.3c1.71-1,4.07-2.34,6.7-3.94c0.58-0.35,1.18-0.72,1.79-1.1
				c0.61-0.38,1.22-0.77,1.84-1.16c0.62-0.4,1.24-0.81,1.87-1.22c0.62-0.42,1.25-0.84,1.87-1.28c0.62-0.43,1.24-0.88,1.85-1.32
				c0.61-0.45,1.2-0.9,1.79-1.36c0.15-0.11,0.29-0.23,0.44-0.34c0.54-0.43,1.06-0.86,1.58-1.29c0.05-0.04,0.1-0.08,0.15-0.12
				c0.42-0.35,0.82-0.71,1.21-1.07c1.05-0.95,2.02-1.92,2.87-2.89c0.64-0.73,1.21-1.46,1.71-2.19c0.55-0.81,1.08-1.58,1.59-2.31
				c0.26-0.37,0.51-0.73,0.76-1.08c0.5-0.71,0.99-1.39,1.47-2.04c0.24-0.33,0.47-0.65,0.71-0.97c0.47-0.64,0.93-1.25,1.38-1.86
				c0.68-0.91,1.34-1.79,2-2.67c0.66-0.88,1.31-1.75,1.96-2.64c0.22-0.3,0.44-0.59,0.66-0.9c0.22-0.3,0.44-0.6,0.66-0.91
				c0.11-0.16,0.22-0.32,0.32-0.48s0.2-0.32,0.28-0.48c0.09-0.16,0.17-0.32,0.25-0.48c0.23-0.48,0.4-0.95,0.53-1.43
				c0.04-0.16,0.08-0.32,0.12-0.48c0.07-0.32,0.12-0.64,0.15-0.96c0.05-0.48,0.06-0.96,0.04-1.44c-0.02-0.49-0.07-0.99-0.14-1.49
				C102.61,84.81,102.58,84.62,102.55,84.42z M89.8,89.87c-0.43,0.34-0.9,0.69-1.42,1.03c-10.46,6.95-18.76-1.78-19.23-6.86
				c0-0.02,0-0.04,0-0.06c-0.01-0.2,0.01-0.4,0.03-0.61c0.02-0.13,0.04-0.25,0.07-0.38c0.03-0.14,0.07-0.29,0.12-0.43
				c0.04-0.13,0.09-0.26,0.15-0.4c0.06-0.15,0.13-0.3,0.21-0.44c0.07-0.13,0.14-0.27,0.22-0.41c0.09-0.15,0.19-0.3,0.29-0.45
				c0.09-0.14,0.18-0.27,0.29-0.41c0.11-0.15,0.23-0.31,0.36-0.46c0.11-0.14,0.22-0.28,0.34-0.41c0.13-0.15,0.27-0.31,0.42-0.46
				c0.13-0.14,0.25-0.27,0.39-0.41c0.15-0.15,0.31-0.31,0.47-0.46c0.14-0.13,0.27-0.27,0.42-0.4c0.17-0.15,0.34-0.3,0.51-0.46
				c0.15-0.13,0.3-0.26,0.45-0.39c0.18-0.15,0.35-0.29,0.53-0.44c0.16-0.13,0.31-0.25,0.47-0.38c0.18-0.15,0.37-0.29,0.56-0.43
				c0.16-0.12,0.31-0.24,0.47-0.36c0.19-0.14,0.38-0.28,0.57-0.41c0.16-0.11,0.31-0.22,0.46-0.33c0.19-0.13,0.38-0.26,0.57-0.39
				c0.15-0.1,0.3-0.21,0.45-0.31c0.19-0.13,0.38-0.24,0.57-0.36c0.14-0.09,0.29-0.19,0.43-0.27c0.2-0.12,0.38-0.23,0.57-0.35
				c0.12-0.07,0.25-0.16,0.37-0.23c0.21-0.12,0.4-0.23,0.59-0.34c0.09-0.05,0.19-0.11,0.28-0.16c0.28-0.15,0.54-0.29,0.79-0.42
				c0.03-0.02,0.06-0.03,0.1-0.05c0.12-0.06,0.23-0.12,0.34-0.17c0.04-0.02,0.07-0.03,0.11-0.05c0.1-0.04,0.19-0.09,0.28-0.13
				c0.04-0.02,0.08-0.03,0.12-0.05c0.07-0.03,0.15-0.06,0.22-0.09c0.05-0.02,0.1-0.03,0.15-0.05c0.05-0.02,0.1-0.03,0.14-0.05
				c0.04-0.01,0.07-0.02,0.11-0.03c0.04-0.01,0.08-0.02,0.11-0.03c0.03-0.01,0.06,0,0.09,0c0.02,0,0.05-0.01,0.07,0
				c0.67,0.1,1.84,1.09,2.88,2.25c0.26,0.29,0.51,0.59,0.74,0.89c0.58,0.75,1.05,1.49,1.25,2.05c0.04,0.11,0.07,0.22,0.09,0.31
				c0.03,0.14,0.03,0.36,0.01,0.62c-0.02,0.36-0.07,0.81-0.14,1.33c-0.02,0.13-0.03,0.26-0.05,0.4c-0.07,0.55-0.16,1.16-0.23,1.8
				c-0.04,0.32-0.08,0.64-0.11,0.97c-0.1,0.98-0.18,1.99-0.17,2.92c0,0.16,0.01,0.32,0.01,0.48c0,0.09,0.01,0.16,0.02,0.25
				c0.01,0.12,0.02,0.23,0.03,0.35c0.02,0.17,0.04,0.33,0.07,0.49c0.02,0.1,0.03,0.21,0.05,0.3c0.04,0.16,0.08,0.31,0.13,0.46
				c0.02,0.07,0.04,0.15,0.07,0.22c0.08,0.21,0.18,0.39,0.3,0.55c0,0.03,0,0.06,0.01,0.09C88.37,87.88,88.37,89.73,89.8,89.87z"/>
			<path class="st28" d="M82.71,25.6c0,0,3.09,0.5,3.91-1.8c0.3-0.84,0.6-1.99,0.8-3.13l0.16-1.21c0.13-1.5-0.04-2.76-0.81-2.99
				c-1.54-0.44-2.28,1.15-3.86,5.81c0,0-0.5,1.4-0.55,2.38C82.33,25.15,82.41,25.53,82.71,25.6z"/>
			<path class="st28" d="M101.6,80.05c0.15-0.52-0.54-3.1-0.79-5.71c-0.27-2.83-0.2-3.7-1.17-2.9c-0.23,0.19-0.4,0.44-0.53,0.76
				c-0.03-0.01-0.05-0.01-0.08-0.02l2.74,8.64C101.72,80.57,101.66,80.31,101.6,80.05z"/>
		</g>
	</g>
</g>
<g id="SECONDARY">
</g>
</svg>
