<?xml version="1.0" encoding="utf-8"?>
<!-- Generator: Adobe Illustrator 22.1.0, SVG Export Plug-In . SVG Version: 6.00 Build 0)  -->
<svg version="1.1" xmlns="http://www.w3.org/2000/svg" xmlns:xlink="http://www.w3.org/1999/xlink" x="0px" y="0px"
	 width="141.67px" height="141.83px" viewBox="0 0 141.67 141.83" style="enable-background:new 0 0 141.67 141.83;"
	 xml:space="preserve">
<style type="text/css">
	.st0{fill:#409DCB;}
	.st1{fill:#F7F7F7;}
	.st2{fill:#CCCCCC;}
	.st3{fill:#80BEDC;}
	.st4{fill:#FFFFFF;}
	.st5{fill:#999999;}
	.st6{fill:#BFDEEE;}
	.st7{fill:#007DBA;}
	.st8{fill:#E6E6E6;}
	.st9{clip-path:url(#SVGID_2_);fill:#A61E24;}
	.st10{clip-path:url(#SVGID_2_);fill:#00A382;}
	.st11{clip-path:url(#SVGID_2_);}
	.st12{fill:none;}
	.st13{fill:#660814;}
	.st14{fill:#00B398;}
	.st15{fill:#76232F;}
	.st16{fill:#D64C62;}
	.st17{fill:#F1C3CB;}
	.st18{clip-path:url(#SVGID_2_);fill:#FFFFFF;}
	.st19{clip-path:url(#SVGID_2_);fill:#EBEBEB;}
	.st20{fill:#F6DDC2;}
	.st21{fill:#F6D180;}
	.st22{fill:#EDA302;}
	.st23{fill:#666666;}
	.st24{fill:#CB9662;}
	.st25{fill:#EFC692;}
	.st26{fill:#8C8C8C;}
	.st27{fill:#333333;}
	.st28{fill:#C8102E;}
	.st29{fill:#ECC082;}
	.st30{fill:#814A2B;}
	.st31{fill:#94613C;}
	.st32{fill:#FDFDFD;}
	.st33{fill:#262626;}
	.st34{fill:#D1B3A3;}
	.st35{fill:#EED0B7;}
	.st36{fill:#D1937F;}
	.st37{fill:#13A48E;}
	.st38{fill:#80D9CB;}
	.st39{fill:#89D1C6;}
	.st40{fill:#E38796;}
	.st41{fill:#8C0B21;}
	.st42{fill:#4EBBAA;}
	.st43{fill:#FCFCFC;}
	.st44{fill:#F6E2AB;}
	.st45{fill:#FCE9BF;}
	.st46{fill:#231F20;}
	.st47{fill:#FBFBFB;}
	.st48{fill:#B06949;}
	.st49{fill:#292929;}
	.st50{fill:none;stroke:#80BEDC;stroke-width:0;stroke-linecap:round;stroke-linejoin:round;}
	.st51{fill:#E5BC91;}
	.st52{fill:#E9CCA8;}
	.st53{fill:#D2D1D1;}
	.st54{fill:#B4481D;}
	.st55{fill:#C78C79;}
	.st56{fill:#DBDBDB;}
	.st57{fill:#00A382;}
	.st58{fill:#B37B02;}
	.st59{fill:#2A113F;}
</style>
<g id="BG_x5F_CIRCLES">
	<g>
		<circle class="st1" cx="70.91" cy="71.32" r="69.66"/>
		<g>
			<path class="st2" d="M35.36,131.22c5.5,3.27,11.48,5.81,17.81,7.47v-7.47H35.36z"/>
			<path class="st2" d="M107.37,11.95c-3.06-1.88-6.28-3.54-9.63-4.94v4.94H107.37z"/>
			<path class="st2" d="M60.7,40.27h63.4V26.35c-2.57-3.04-5.39-5.86-8.44-8.41H60.7V40.27z"/>
			<path class="st2" d="M97.45,68.6h43.05c-0.3-7.85-1.9-15.36-4.59-22.33H97.45V68.6z"/>
			<path class="st2" d="M133.27,40.27c-0.52-1.04-1.07-2.07-1.64-3.09v3.09H133.27z"/>
			<polygon class="st2" points="90.21,102.9 26.8,102.9 26.8,125.24 26.81,125.24 90.21,125.24 			"/>
			<path class="st2" d="M8.83,102.9c2.81,5.52,6.33,10.62,10.45,15.17V102.9H8.83z"/>
			<path class="st2" d="M19.27,46.26H5.91C3.22,53.23,1.62,60.75,1.32,68.6h17.95V46.26z"/>
			<path class="st2" d="M53.04,74.58H1.33c0.36,7.86,2.04,15.37,4.79,22.33h46.91V74.58z"/>
			<path class="st2" d="M90.21,4.38c-6.13-1.76-12.6-2.73-19.29-2.73c-13.37,0-25.85,3.77-36.46,10.3h55.75V4.38z"/>
			<path class="st2" d="M53.17,17.94H26.16c-7.3,6.13-13.32,13.72-17.61,22.33h44.62V17.94z"/>
			<rect x="60.7" y="74.58" class="st2" width="63.4" height="22.33"/>
			<path class="st2" d="M97.74,125.24h17.28c7.44-6.09,13.58-13.7,17.98-22.33H97.74V125.24z"/>
			<path class="st2" d="M131.64,96.92h4.06c2.76-6.97,4.43-14.48,4.79-22.33h-8.86V96.92z"/>
			<path class="st2" d="M60.7,131.22v9.01c3.33,0.49,6.74,0.75,10.21,0.75c12.99,0,25.14-3.57,35.55-9.76H60.7z"/>
			<polygon class="st2" points="90.21,46.35 90.21,46.26 26.8,46.26 26.8,68.6 90.21,68.6 			"/>
		</g>
	</g>
</g>
<g id="PRIMARY">
	<g>
		<polygon class="st23" points="116.21,34.79 115.8,34.97 98.34,60.59 38.4,98.18 44.76,100.87 122.67,66.24 122.67,37.39 		"/>
		<polygon class="st4" points="115.8,34.97 115.8,34.93 65.27,57.38 42.64,67.45 37.89,69.56 37.89,98.41 38.4,98.18 115.8,63.78 		
			"/>
	</g>
	<g>
		<path class="st7" d="M55.91,81.01h-9.32v-3.58l9.26-13.02h4.84v12.74h2.99v3.86h-2.99v5.31h-4.78V81.01z M55.91,77.16v-6.51
			l-4.63,6.51H55.91z"/>
	</g>
	<g>
		<path class="st2" d="M97.72,62.28H88.4V58.7l9.26-13.02h4.84v12.74h2.99v3.86h-2.99v5.31h-4.78V62.28z M97.72,58.42v-6.51
			l-4.63,6.51H97.72z"/>
	</g>
	<g>
		<path class="st7" d="M68.21,67.57c0-6.94,2.47-11.29,7.81-11.29c5.34,0,7.74,4.44,7.74,11.29c0,6.94-2.44,11.23-7.74,11.23
			C70.61,78.8,68.21,74.45,68.21,67.57z M78.91,67.51c0-3.95-0.65-6.91-2.9-6.91c-2.31,0-2.93,2.9-2.93,6.94
			c0,4.04,0.62,6.94,2.93,6.94C78.3,74.48,78.91,71.55,78.91,67.51z"/>
	</g>
</g>
<g id="SECONDARY">
	<g>
		<g>
			<path class="st7" d="M104.76,69.93l9.12-1.93l0.74,3.5l-6.35,14.66l-4.74,1.01l-2.65-12.47l-2.93,0.62l-0.8-3.77l2.93-0.62
				l-1.1-5.19l4.68-0.99L104.76,69.93z M105.56,73.7l1.35,6.37l3.18-7.33L105.56,73.7z"/>
		</g>
	</g>
</g>
</svg>
